<?xml version="1.0" standalone="no"?>
<!DOCTYPE svg PUBLIC "-//W3C//DTD SVG 20010904//EN"
 "http://www.w3.org/TR/2001/REC-SVG-20010904/DTD/svg10.dtd">
<svg version="1.0" xmlns="http://www.w3.org/2000/svg"
 width="2048.000000pt" height="2048.000000pt" viewBox="0 0 2048.000000 2048.000000"
 preserveAspectRatio="xMidYMid meet">

<g transform="translate(0.000000,2048.000000) scale(0.100000,-0.100000)"
fill="#000000" stroke="none">
<path d="M7225 14991 c-33 -19 -200 -180 -481 -463 -410 -412 -433 -437 -470
-512 -38 -78 -38 -80 -40 -205 0 -69 1 -92 3 -51 2 41 8 79 14 85 7 7 8 4 3
-9 -5 -13 -4 -17 3 -13 7 4 16 -7 23 -28 12 -37 30 -47 31 -17 0 14 2 14 8 -3
6 -16 3 -22 -18 -31 -42 -17 -8 -24 44 -9 34 11 105 15 244 16 108 1 183 5
166 9 l-30 7 35 5 c29 4 26 5 -18 6 -40 2 -51 -1 -46 -10 5 -8 0 -7 -11 2 -15
12 -17 12 -10 1 5 -10 4 -12 -3 -7 -7 4 -12 14 -12 22 0 8 -4 13 -9 10 -5 -3
-8 2 -7 12 0 9 -4 16 -11 15 -12 -2 -12 14 -1 32 4 6 -2 12 -14 12 -26 2 -60
32 -51 46 4 7 0 8 -11 4 -14 -5 -17 -3 -13 8 4 8 1 17 -5 21 -6 4 -8 3 -4 -4
3 -6 2 -13 -4 -17 -5 -3 -10 -1 -10 6 0 10 -3 10 -12 1 -7 -7 -21 -12 -32 -11
-20 0 -20 1 -2 8 23 9 30 51 8 51 -9 0 -12 6 -8 17 4 10 4 14 0 10 -4 -4 -19
3 -32 15 -14 13 -21 16 -17 8 8 -13 7 -13 -9 0 -17 13 -17 15 10 22 16 5 140
8 276 7 210 0 247 -2 252 -15 3 -9 11 -12 17 -8 8 5 9 3 5 -5 -6 -9 -12 -9
-24 2 -34 30 -103 10 -82 -23 9 -13 10 -13 11 0 1 8 1 20 -1 25 -1 6 4 5 10
-1 9 -9 9 -18 -1 -35 -11 -22 -11 -23 4 -11 14 12 17 10 23 -13 5 -20 9 -23
15 -13 6 9 9 9 9 1 0 -7 6 -10 13 -7 10 4 12 -3 9 -27 -4 -30 -3 -31 22 -25
31 8 76 -2 76 -16 0 -6 -7 -8 -14 -5 -10 4 -13 1 -9 -9 3 -9 -1 -14 -13 -14
-18 -1 -18 -1 1 -12 11 -6 23 -16 26 -21 4 -5 14 -7 22 -4 24 9 27 -17 3 -31
-19 -11 -19 -12 9 -6 69 14 234 111 235 138 0 5 -6 3 -14 -4 -12 -9 -15 -8
-13 7 1 15 7 18 26 15 l26 -5 -22 22 c-13 12 -23 27 -23 33 0 7 -6 3 -14 -7
-8 -11 -12 -26 -9 -35 3 -11 1 -10 -7 2 -7 12 -8 24 -1 35 6 13 5 22 -5 31
-11 10 -14 10 -14 0 -1 -7 -7 -2 -15 12 l-14 25 -1 -27 c0 -20 5 -28 18 -29 9
0 12 -3 5 -5 -7 -3 -9 -13 -6 -22 6 -14 5 -15 -9 -2 -9 8 -14 18 -11 23 5 9
-11 9 -21 0 -10 -11 -37 -12 -30 -2 3 5 11 6 17 3 7 -4 9 -3 4 1 -11 12 -50
17 -42 6 3 -5 0 -13 -6 -17 -8 -4 -9 -3 -5 4 7 11 -27 36 -37 26 -8 -8 -47 19
-47 33 0 7 -8 13 -17 13 -10 0 -24 4 -30 8 -7 4 9 7 36 6 44 -2 48 0 44 17 -3
10 -9 16 -14 13 -5 -3 -7 -9 -4 -14 3 -4 -6 -7 -19 -6 -24 1 -26 16 -3 16 22
0 105 94 129 145 22 47 23 66 29 330 6 307 10 333 70 408 36 45 22 47 -46 8z
m-245 -925 c0 -3 -4 -8 -10 -11 -5 -3 -10 -1 -10 4 0 6 5 11 10 11 6 0 10 -2
10 -4z m-49 -69 c-10 -9 -11 -8 -5 6 3 10 9 15 12 12 3 -3 0 -11 -7 -18z m139
13 c0 -5 -2 -10 -4 -10 -3 0 -8 5 -11 10 -3 6 -1 10 4 10 6 0 11 -4 11 -10z
m155 -120 c3 -6 -1 -7 -9 -4 -18 7 -21 14 -7 14 6 0 13 -4 16 -10z m45 6 c0
-2 -7 -7 -16 -10 -8 -3 -12 -2 -9 4 6 10 25 14 25 6z m-950 -81 c-14 -17 -30
-20 -30 -4 0 5 4 8 9 4 5 -3 12 -1 16 5 3 5 9 10 12 10 3 0 0 -7 -7 -15z"/>
<path d="M7103 14109 c23 -13 22 -24 -5 -50 -17 -16 -18 -20 -6 -16 9 3 18 1
20 -5 3 -7 10 -8 17 -4 9 6 9 11 -1 24 -11 12 -11 16 0 20 10 3 9 8 -4 23 -9
10 -22 19 -28 19 -6 0 -3 -5 7 -11z"/>
<path d="M6500 13960 c0 -5 5 -10 10 -10 6 0 10 5 10 10 0 6 -4 10 -10 10 -5
0 -10 -4 -10 -10z"/>
<path d="M6660 13850 c0 -7 -7 -9 -17 -5 -14 5 -15 3 -6 -5 7 -8 17 -9 28 -2
12 6 14 11 6 16 -6 4 -11 2 -11 -4z"/>
<path d="M6860 13830 c0 -5 5 -10 10 -10 6 0 10 5 10 10 0 6 -4 10 -10 10 -5
0 -10 -4 -10 -10z"/>
<path d="M7010 13810 c8 -5 20 -10 25 -10 6 0 3 5 -5 10 -8 5 -19 10 -25 10
-5 0 -3 -5 5 -10z"/>
<path d="M6820 13789 c0 -5 5 -7 10 -4 6 3 10 8 10 11 0 2 -4 4 -10 4 -5 0
-10 -5 -10 -11z"/>
<path d="M9404 13565 c0 -126 2 -177 3 -112 2 65 2 168 0 230 -1 62 -3 9 -3
-118z"/>
<path d="M6938 13763 c7 -3 16 -2 19 1 4 3 -2 6 -13 5 -11 0 -14 -3 -6 -6z"/>
<path d="M6230 11489 c0 -1304 3 -1893 11 -1935 30 -165 153 -307 317 -366
l57 -20 3470 1 c3074 2 3479 4 3545 17 235 48 439 212 536 430 54 123 66 187
71 388 4 138 2 187 -6 182 -6 -4 -11 -1 -11 8 0 9 4 16 8 16 5 0 9 7 9 15 0 8
-6 15 -14 15 -7 0 -13 5 -13 10 0 6 -5 10 -11 10 -5 0 -7 -5 -4 -11 4 -6 -2
-5 -13 2 -12 7 -18 17 -15 22 3 5 0 7 -8 5 -8 -3 -13 -11 -11 -17 1 -6 0 -11
-3 -11 -9 0 -41 36 -48 54 -5 14 -11 15 -20 8 -16 -14 -109 -5 -119 11 -6 9
-8 9 -8 0 0 -7 -4 -13 -10 -13 -5 0 -7 7 -3 16 5 13 0 15 -23 12 -16 -1 -38
-11 -48 -20 -11 -10 -25 -18 -30 -17 -6 0 -5 3 2 6 6 2 9 10 6 15 -4 7 -2 8 4
4 7 -4 12 -2 12 4 0 6 -10 8 -26 4 -24 -6 -25 -5 -16 11 7 14 6 22 -3 32 -19
18 -30 16 -15 -2 9 -11 10 -15 1 -15 -8 0 -10 -8 -6 -22 4 -13 3 -18 -2 -12
-9 13 -83 24 -83 12 0 -4 -7 -8 -16 -8 -8 0 -13 3 -10 8 2 4 -7 12 -20 19 -13
6 -26 8 -29 3 -2 -4 -15 -5 -28 -3 -14 3 -29 -2 -37 -12 -11 -14 -10 -17 8
-22 12 -3 22 -9 22 -15 0 -5 -10 -3 -22 4 -13 7 -29 11 -37 9 -7 -1 -11 3 -8
11 2 7 10 12 16 10 6 -1 11 5 11 14 0 13 -3 14 -14 5 -7 -6 -35 -14 -61 -18
-42 -5 -46 -8 -31 -19 16 -12 16 -13 -5 -24 -19 -11 -21 -10 -16 4 4 9 2 16
-3 16 -5 0 -7 6 -4 13 3 8 -2 14 -11 14 -17 0 -20 -13 -5 -22 15 -9 12 -22 -7
-29 -10 -4 -14 -4 -10 0 4 4 -1 13 -11 21 -10 9 -11 11 -2 7 13 -7 13 -5 2 8
-7 9 -21 15 -30 13 -9 -2 -19 -4 -22 -4 -3 -1 2 -6 10 -12 11 -8 9 -9 -10 -3
-14 4 -32 7 -40 7 -8 0 -18 5 -22 11 -5 8 -8 7 -8 -1 0 -7 -7 -10 -17 -6 -11
4 -14 3 -9 -5 4 -8 -6 -7 -33 3 -21 7 -42 11 -45 8 -3 -4 -6 -1 -6 5 0 7 -9
12 -20 12 -11 0 -20 -4 -20 -9 0 -5 -7 -11 -14 -14 -10 -4 -13 -1 -10 7 7 19
-15 31 -29 17 -19 -19 -27 -12 -17 14 8 21 7 25 -9 25 -25 0 -33 -11 -19 -27
7 -9 0 -7 -20 4 -18 10 -32 22 -32 26 0 31 -73 49 -84 21 -6 -14 -4 -15 9 -4
14 12 15 11 4 -13 -9 -21 -18 -26 -40 -23 -16 2 -34 -3 -40 -10 -6 -8 -17 -14
-23 -14 -6 0 -4 5 4 10 11 7 3 10 -29 10 -40 0 -42 1 -30 18 11 13 9 13 -9 -2
-17 -15 -25 -17 -34 -8 -7 7 -20 12 -30 12 -10 0 -18 6 -18 14 0 17 -24 27
-47 20 -15 -5 -15 -4 -4 4 12 9 10 12 -12 17 -15 4 -27 11 -27 16 0 11 -23 7
-32 -6 -4 -5 -8 0 -8 13 0 20 -5 22 -54 22 -30 0 -57 -4 -60 -8 -3 -5 -22 -8
-43 -7 -21 1 -42 -3 -46 -9 -5 -6 -5 0 -1 14 6 23 6 24 -12 10 -18 -14 -18
-14 -5 3 10 13 17 15 27 6 8 -6 14 -9 14 -6 0 3 14 2 31 -3 28 -8 31 -7 26 11
-4 16 -3 18 8 9 11 -9 19 -6 38 14 29 31 43 33 50 5 6 -24 27 -17 27 9 0 15
-2 15 -10 2 -8 -13 -10 -12 -10 3 0 32 29 18 33 -15 l4 -33 1 33 c2 29 -2 35
-30 46 -19 7 -63 11 -106 10 -41 -2 -70 1 -67 6 9 15 -12 20 -24 6 -10 -11 -8
-17 6 -25 17 -10 16 -10 -4 -11 -23 0 -73 -43 -73 -62 0 -6 -3 -8 -6 -5 -4 4
-1 20 6 37 15 37 10 45 -16 24 -10 -8 -13 -13 -6 -9 21 11 13 -14 -8 -25 -16
-8 -20 -8 -20 4 0 8 -4 18 -10 21 -6 4 -7 -1 -3 -12 6 -16 5 -16 -10 -4 -16
12 -19 11 -29 -17 -10 -25 -17 -31 -33 -27 -17 4 -17 3 3 -6 12 -7 22 -20 22
-31 0 -14 -8 -18 -42 -19 -42 -1 -42 -1 -15 -12 33 -13 40 -64 9 -60 -10 1
-12 -6 -8 -23 5 -19 3 -24 -14 -24 -17 0 -19 4 -14 25 5 21 3 25 -14 25 -24 0
-37 -16 -22 -25 24 -15 5 -22 -65 -24 -72 -2 -75 -1 -76 21 0 21 -1 21 -8 4
-4 -11 -15 -20 -24 -22 -21 -3 -22 9 -2 26 16 13 21 35 6 26 -5 -3 -12 1 -15
10 -4 10 -12 14 -22 10 -13 -5 -15 -2 -11 13 5 20 -16 36 -34 26 -5 -3 -18 -1
-29 5 -15 8 -20 8 -20 -1 0 -17 -13 -2 -16 17 -2 10 3 14 12 10 20 -8 17 11
-3 23 -15 9 -14 10 10 11 26 0 26 1 10 18 -13 13 -23 16 -35 10 -24 -12 -40
-10 -35 5 4 12 -28 47 -44 47 -4 0 -14 3 -23 6 -11 4 -16 1 -16 -11 0 -13 6
-16 25 -13 13 3 22 1 19 -3 -3 -5 0 -9 5 -9 6 0 11 -4 11 -10 0 -6 -11 -5 -26
2 -23 11 -28 10 -40 -7 -13 -17 -16 -18 -24 -5 -5 8 -10 11 -10 6 0 -6 -7 -1
-15 10 -14 18 -15 18 -9 0 6 -15 3 -17 -14 -12 -11 4 -23 3 -25 -2 -9 -13 9
-35 22 -28 6 4 11 2 11 -3 0 -6 5 -11 11 -11 5 0 7 5 4 10 -3 6 -1 10 4 10 6
0 11 -9 11 -21 0 -11 -4 -17 -10 -14 -5 3 -10 0 -10 -7 0 -9 -3 -10 -8 -2 -12
18 -52 28 -52 12 0 -15 -53 -48 -78 -48 -15 -1 -15 -2 2 -15 17 -13 16 -14
-10 -10 -16 2 -33 4 -38 4 -5 1 -6 4 -3 7 10 10 -12 44 -28 44 -8 0 -20 -9
-27 -20 -14 -21 -38 -27 -38 -9 0 5 -4 7 -10 4 -5 -3 -10 1 -10 11 0 14 3 14
15 4 21 -18 31 -5 11 15 -9 9 -22 13 -28 10 -7 -4 -5 0 5 8 20 16 7 34 -15 21
-7 -4 -10 -4 -6 1 4 4 3 15 -4 22 -9 11 -9 17 3 24 11 7 8 9 -11 10 -14 0 -20
3 -13 5 8 4 2 16 -17 36 -17 18 -34 27 -41 22 -8 -4 -9 -3 -5 5 5 7 -3 13 -21
17 -85 17 -122 118 -67 183 l26 31 -2 547 c-1 302 -3 598 -5 658 -1 61 -3 165
-4 233 0 67 -5 122 -10 122 -5 0 -16 -7 -24 -15 -12 -12 -17 -12 -26 -1 -6 7
-7 17 -3 21 4 5 1 5 -5 1 -7 -4 -13 -2 -13 5 0 7 -10 9 -25 7 -17 -4 -31 2
-46 18 -13 13 -29 24 -37 24 -12 0 -12 2 -1 17 12 15 12 16 -4 10 -10 -4 -21
-7 -23 -7 -2 0 -4 -10 -4 -22 0 -30 -11 -16 -13 18 -2 27 -5 29 -45 28 -23 -1
-39 2 -36 7 3 5 -2 9 -11 9 -10 0 -13 5 -9 13 6 9 5 9 -8 0 -8 -7 -18 -10 -22
-6 -4 4 -4 0 0 -10 3 -9 2 -17 -4 -17 -9 0 -11 -44 -14 -237 -1 -24 -5 -43
-10 -43 -6 0 -9 47 -7 113 3 145 0 402 -5 396 -4 -4 -10 -101 -22 -334 -5
-109 -14 -156 -14 -77 0 49 -20 58 -21 10 -1 -31 -1 -32 -9 -8 -14 45 -12 63
9 57 15 -4 18 1 17 29 -3 42 -16 57 -17 18 0 -16 -3 -23 -6 -16 -2 6 -8 10
-12 7 -5 -2 -6 8 -4 23 3 23 2 24 -6 7 -9 -18 -10 -18 -10 -2 -1 10 -5 16 -10
13 -9 -6 -21 16 -21 37 0 8 4 7 12 -1 15 -15 48 -16 48 -1 0 6 -6 9 -13 6 -8
-3 -20 -1 -28 5 -11 8 -10 9 4 4 9 -3 17 -1 17 4 0 13 -27 13 -35 0 -4 -6 -10
-8 -15 -5 -4 3 -16 2 -25 -1 -13 -6 -14 -9 -2 -23 7 -9 12 -22 11 -28 -1 -7
-2 -22 -3 -32 -1 -13 -8 -19 -21 -18 -26 2 -25 9 1 25 20 13 20 14 3 33 -17
19 -45 21 -106 4 -18 -5 -28 -3 -28 4 0 6 6 8 14 5 8 -3 17 0 22 7 5 9 2 10
-9 6 -9 -3 -19 -1 -23 5 -4 7 -9 6 -15 -3 -6 -10 -10 -7 -18 11 -5 14 -10 20
-10 14 -1 -14 -111 -16 -111 -2 0 6 -9 4 -22 -4 -39 -25 -61 -30 -55 -14 7 16
-26 32 -43 21 -18 -11 -60 -16 -60 -6 0 5 -11 11 -25 13 -14 3 -25 2 -25 -3 0
-4 -9 -6 -21 -4 -15 3 -19 0 -17 -13 2 -12 13 -17 35 -17 24 0 29 -3 21 -12
-5 -7 -13 -12 -16 -11 -28 3 -32 -3 -16 -27 10 -15 12 -25 5 -25 -6 0 -11 7
-11 15 0 9 -7 18 -16 22 -12 4 -13 8 -3 14 18 11 -17 50 -37 42 -8 -3 -14 1
-15 8 0 8 -3 6 -8 -4 -6 -17 -10 -16 -41 11 -31 28 -32 30 -13 36 15 5 19 13
16 26 -4 16 -9 18 -24 9 -17 -9 -23 -5 -20 13 0 4 -7 4 -16 1 -11 -4 -13 -8
-5 -11 19 -6 14 -32 -9 -51 -20 -16 -20 -18 -4 -31 14 -12 18 -12 25 0 5 8 6
18 4 22 -3 4 2 5 11 2 11 -5 13 -10 5 -19 -5 -6 -6 -16 -2 -20 4 -5 1 -5 -5
-1 -7 4 -13 2 -13 -3 0 -6 -3 -10 -7 -10 -23 4 -25 -3 -5 -16 16 -12 26 -13
42 -5 11 6 20 15 20 21 0 6 -4 7 -10 4 -5 -3 -10 -2 -10 4 0 20 16 19 38 -4
20 -21 20 -23 4 -18 -28 7 -36 -23 -13 -46 11 -11 23 -16 28 -13 4 4 0 -2 -10
-14 -9 -11 -14 -24 -10 -27 3 -4 1 -7 -5 -7 -7 0 -12 13 -12 30 0 19 -5 29
-12 27 -7 -1 -12 6 -10 15 2 12 -2 16 -12 12 -8 -3 -17 0 -21 5 -3 6 -11 9
-16 6 -8 -6 -13 9 -6 19 1 2 -6 13 -15 23 -11 12 -14 23 -9 29 5 5 12 23 14
41 5 30 4 31 -16 20 -29 -16 -38 -30 -25 -38 6 -4 0 -6 -15 -6 -21 2 -23 5
-14 16 10 12 7 13 -16 7 -23 -5 -29 -2 -38 18 -11 23 -39 26 -39 4 0 -6 7 -7
16 -4 12 5 15 2 10 -10 -3 -8 -6 -18 -6 -20 0 -2 -5 -4 -11 -4 -5 0 -8 4 -4 9
3 6 -2 14 -11 19 -19 11 -20 22 -2 33 10 7 10 9 0 9 -7 0 -10 4 -7 10 4 6 -1
7 -11 3 -11 -4 -15 -3 -11 4 4 6 1 14 -5 17 -7 3 -1 4 14 1 21 -4 26 -2 22 9
-3 7 -19 16 -35 20 -17 3 -28 10 -24 16 8 13 -19 52 -30 42 -4 -4 -2 3 4 16
10 18 9 22 -3 22 -15 0 -27 63 -27 150 0 25 -1 77 -3 115 -3 39 -6 99 -8 135
-1 36 -5 -220 -8 -568 l-5 -634 -37 -34 -38 -34 -865 0 c-951 0 -908 -3 -940
60 -11 22 -15 68 -17 187 -1 87 -3 137 -5 111 -2 -27 -9 -48 -15 -48 -5 0 -8
7 -4 15 8 23 -4 45 -25 45 -14 0 -18 6 -17 24 1 14 6 22 10 20 5 -3 5 -11 2
-17 -5 -9 -3 -9 6 0 10 9 10 15 2 26 -7 8 -9 17 -5 21 4 4 1 11 -7 16 -8 6
-10 10 -4 10 6 0 11 7 11 15 0 11 -4 12 -11 5 -17 -17 -23 -11 -21 25 0 20 -2
40 -5 45 -11 18 -31 -8 -32 -43 -1 -20 -5 -37 -10 -37 -4 0 -7 3 -7 8 1 4 1
19 0 33 -1 23 -6 27 -38 32 -21 2 -43 0 -49 -4 -6 -5 -14 -5 -19 -1 -4 4 -2
-3 4 -16 12 -23 12 -23 -12 -8 -13 9 -27 13 -32 9 -4 -5 -5 -2 -1 5 4 7 1 12
-8 12 -19 0 -22 20 -3 20 7 1 5 6 -6 14 -17 13 -17 14 0 20 10 4 19 2 21 -3 9
-26 22 -8 22 29 0 22 -3 40 -6 40 -11 0 -34 -29 -34 -44 0 -9 -4 -16 -10 -16
-5 0 -10 9 -10 20 0 11 -4 20 -10 20 -5 0 -10 -9 -10 -19 0 -19 -28 -37 -39
-25 -3 4 0 9 6 11 25 9 -12 31 -43 26 -24 -4 -26 -2 -14 7 13 10 12 11 -3 6
-10 -3 -23 -6 -28 -6 -5 0 -9 -7 -9 -16 0 -8 4 -13 9 -10 5 3 12 -2 16 -12 6
-16 7 -16 20 2 8 10 18 15 24 11 18 -11 12 -22 -14 -28 -19 -3 -34 3 -55 23
-17 16 -31 23 -34 16 -3 -7 -5 -6 -5 2 -1 10 -6 10 -23 -2 -13 -10 -26 -12
-33 -6 -17 14 -37 -5 -38 -36 0 -16 -2 -23 -4 -16 -3 6 -11 12 -19 12 -8 0
-14 7 -14 16 0 14 2 15 17 3 15 -12 16 -12 8 1 -5 8 -8 24 -7 35 2 15 -1 14
-13 -7 -9 -16 -20 -28 -25 -28 -10 0 -7 40 5 59 5 10 4 12 -4 7 -17 -11 -77
-15 -91 -6 -9 6 -7 10 9 15 11 3 21 11 21 16 0 6 -4 8 -9 5 -5 -4 -11 -1 -13
4 -2 6 -20 13 -41 17 -34 5 -37 4 -36 -18 0 -13 3 -18 6 -11 4 10 8 9 19 -5
23 -30 17 -44 -16 -38 -25 4 -29 2 -24 -12 4 -12 3 -14 -3 -6 -5 6 -22 19 -38
27 -27 14 -28 16 -8 16 20 0 21 2 11 25 -12 28 -28 33 -28 10 0 -9 -9 -15 -22
-14 -13 0 -17 3 -10 6 32 13 -2 34 -63 38 -37 3 -56 8 -74 19 -11 7 -13 5 -8
-7 5 -13 1 -17 -19 -17 -15 0 -23 -4 -18 -11 3 -6 -8 -4 -24 5 -17 9 -34 21
-37 26 -4 6 -16 8 -28 4 -19 -6 -20 -5 -8 10 15 17 5 21 -19 6 -8 -5 -12 -12
-8 -15 3 -4 2 -20 -2 -36 -5 -18 -5 -27 1 -24 5 4 9 1 9 -4 0 -6 -6 -11 -14
-11 -12 0 -15 57 -16 367 0 202 -3 369 -5 372 -3 2 -5 -839 -5 -1870z m69
1154 c1 5 6 5 11 2 19 -12 0 -26 -20 -15 -12 7 -17 16 -13 27 6 15 7 14 14 -3
4 -10 8 -15 8 -11z m167 12 c9 -9 11 -15 4 -15 -6 0 -8 -5 -5 -10 4 -6 10 -8
15 -5 4 3 11 -1 13 -7 4 -8 6 -7 6 4 1 17 41 22 41 5 0 -5 -8 -6 -17 -3 -16 5
-16 5 -2 -6 13 -11 13 -17 2 -38 -12 -25 -13 -25 -13 -2 0 12 -4 22 -9 22 -5
0 -7 -10 -4 -22 3 -13 3 -21 0 -18 -3 3 -7 14 -9 25 -5 30 -29 46 -47 32 -12
-9 -13 -9 -7 1 4 6 5 12 2 12 -2 0 -13 3 -23 7 -15 6 -16 5 -5 -9 9 -11 10
-18 2 -23 -6 -4 -10 -3 -9 2 4 22 -2 25 -16 7 -9 -11 -14 -13 -13 -5 3 17 31
49 38 45 3 -1 12 1 20 7 19 11 19 12 36 -6z m-123 -12 c-5 -12 -3 -14 7 -8 9
6 11 4 5 -4 -5 -9 -11 -9 -17 -3 -6 6 -7 15 -4 21 11 17 16 13 9 -6z m277 -65
c0 -4 -9 -8 -20 -8 -11 0 -20 4 -20 9 0 6 9 9 20 8 11 -1 20 -5 20 -9z m2977
-40 c-3 -7 -5 -2 -5 12 0 14 2 19 5 13 2 -7 2 -19 0 -25z m-2630 -7 c15 15 34
2 26 -18 -6 -15 -7 -14 -13 3 -7 18 -7 18 -14 -3 -7 -21 -28 -34 -25 -15 4 22
-3 34 -16 28 -15 -5 -20 5 -8 17 3 4 14 0 23 -8 12 -11 19 -12 27 -4z m2650
-13 c-3 -7 -5 -2 -5 12 0 14 2 19 5 13 2 -7 2 -19 0 -25z m323 0 c0 -4 -7 -8
-15 -8 -8 0 -15 4 -15 8 0 5 7 9 15 9 8 0 15 -4 15 -9z m-3090 -2 c0 -3 -4 -8
-10 -11 -5 -3 -10 -1 -10 4 0 6 5 11 10 11 6 0 10 -2 10 -4z m271 -14 c-7 -2
-18 1 -23 6 -8 8 -4 9 13 5 13 -4 18 -8 10 -11z m3656 -2 c-1 -12 -5 -16 -10
-11 -5 5 -6 14 -3 20 11 16 15 13 13 -9z m-492 -15 c20 -2 44 -17 49 -31 4
-10 -3 -14 -24 -14 -17 0 -29 5 -27 11 1 6 -10 12 -25 13 -14 1 -25 -1 -22 -5
2 -4 -5 -9 -15 -12 -15 -4 -19 0 -16 15 6 30 13 34 35 20 16 -10 18 -9 13 5
-5 12 -3 14 8 7 8 -4 19 -9 24 -9z m-260 -5 c-3 -6 0 -13 9 -16 8 -3 14 -14
13 -24 -1 -18 -27 -17 -27 2 0 5 -6 6 -12 2 -10 -6 -10 -5 -1 7 10 12 10 18 1
27 -9 9 -8 12 6 12 9 0 14 -5 11 -10z m395 1 c0 -6 -4 -13 -10 -16 -5 -3 -10
1 -10 9 0 9 5 16 10 16 6 0 10 -4 10 -9z m-3116 -16 c3 -9 0 -15 -9 -15 -8 0
-15 7 -15 15 0 8 4 15 9 15 5 0 11 -7 15 -15z m2836 5 c12 -7 10 -9 -8 -7 -12
0 -22 5 -22 9 0 11 12 10 30 -2z m41 -3 c-1 -12 -15 -9 -19 4 -3 6 1 10 8 8 6
-3 11 -8 11 -12z m-181 -1 c0 -3 -4 -8 -10 -11 -5 -3 -10 -1 -10 4 0 6 5 11
10 11 6 0 10 -2 10 -4z m864 -15 c21 -18 20 -28 -3 -26 -23 1 -53 24 -46 35 7
11 30 7 49 -9z m-1239 -11 c10 -11 14 -20 9 -20 -5 0 -15 9 -22 20 -7 11 -11
20 -9 20 2 0 12 -9 22 -20z m869 -6 c3 -8 2 -12 -4 -9 -6 3 -10 10 -10 16 0
14 7 11 14 -7z m-484 -8 c0 -2 -7 -6 -15 -10 -8 -3 -15 -1 -15 4 0 6 7 10 15
10 8 0 15 -2 15 -4z m78 -14 c-10 -2 -18 -8 -18 -13 0 -6 4 -8 9 -4 5 3 12 2
15 -3 9 -15 -32 -11 -45 4 -10 12 -10 15 2 12 8 -2 13 2 12 8 -2 8 6 10 20 6
18 -5 19 -7 5 -10z m-3324 0 c3 -5 -1 -9 -9 -9 -8 0 -12 4 -9 9 3 4 7 8 9 8 2
0 6 -4 9 -8z m3012 -18 c-1 -8 -6 -17 -12 -21 -5 -4 -6 -4 -2 1 4 5 3 14 -2
21 -7 8 -5 12 4 12 8 0 13 -6 12 -13z m171 -6 c-3 -8 -6 -5 -6 6 -1 11 2 17 5
13 3 -3 4 -12 1 -19z m73 2 c-8 -5 -2 -11 16 -18 23 -8 25 -11 9 -11 -23 -1
-45 16 -45 36 0 7 7 10 16 6 11 -4 12 -8 4 -13z m-159 -5 c0 -6 -11 -11 -23
-12 -21 -1 -21 -1 1 4 19 4 21 7 10 15 -10 7 -11 9 -1 6 8 -2 13 -8 13 -13z
m639 5 c0 -5 -4 -10 -10 -10 -5 0 -10 5 -10 10 0 6 5 10 10 10 6 0 10 -4 10
-10z m460 0 c0 -5 -2 -10 -4 -10 -3 0 -8 5 -11 10 -3 6 -1 10 4 10 6 0 11 -4
11 -10z m37 -55 c0 -8 -4 -12 -9 -9 -5 3 -6 10 -3 15 9 13 12 11 12 -6z
m-1107 1 c0 -3 -4 -8 -10 -11 -5 -3 -10 -1 -10 4 0 6 5 11 10 11 6 0 10 -2 10
-4z m-3 -41 c0 -8 -4 -12 -9 -9 -5 3 -6 10 -3 15 9 13 12 11 12 -6z m-2417
-24 c0 -5 -7 -11 -15 -15 -9 -3 -15 0 -15 9 0 8 7 15 15 15 8 0 15 -4 15 -9z
m2379 -892 c52 -52 39 -143 -25 -174 -29 -14 -178 -15 -1393 -13 l-1360 3 -28
21 c-56 42 -60 126 -8 172 l26 22 1379 0 1378 0 31 -31z m-166 -518 l139 -1
29 -31 c41 -44 41 -108 0 -150 l-29 -29 -1372 0 c-1490 0 -1412 -3 -1438 55
-19 42 -15 91 12 122 l24 28 289 5 c236 4 1817 5 2346 1z m2792 -281 c3 -6 -1
-7 -9 -4 -9 3 -16 2 -16 -3 0 -5 -7 -10 -15 -10 -21 0 -19 15 3 20 28 8 31 7
37 -3z m-105 -4 c0 -11 -19 -15 -25 -6 -3 5 1 10 9 10 9 0 16 -2 16 -4z m-14
-48 c3 -4 -1 -5 -10 -4 -8 1 -18 5 -22 8 -3 4 1 5 10 4 8 -1 18 -5 22 -8z
m-781 -38 c-3 -5 -15 -10 -26 -10 -11 0 -17 5 -14 10 3 6 15 10 26 10 11 0 17
-4 14 -10z m573 -35 c-3 -3 -9 2 -12 12 -6 14 -5 15 5 6 7 -7 10 -15 7 -18z
m332 21 c0 -3 -4 -8 -10 -11 -5 -3 -10 -1 -10 4 0 6 5 11 10 11 6 0 10 -2 10
-4z m-295 -44 c-15 -16 -16 -15 -4 12 7 15 15 23 17 16 3 -7 -3 -19 -13 -28z
m-725 14 c0 -8 -13 -16 -30 -18 -16 -3 -30 -1 -30 3 0 11 30 20 42 12 7 -3 8
-1 4 5 -4 7 -2 12 3 12 6 0 11 -6 11 -14z m-174 -5 c-4 -5 0 -12 6 -14 8 -3 6
-6 -4 -6 -18 -1 -24 10 -11 22 9 10 15 8 9 -2z m840 -33 c4 -7 3 -8 -4 -4 -7
4 -12 2 -12 -5 0 -7 -3 -10 -6 -6 -6 5 3 27 11 27 2 0 7 -5 11 -12z m-306 -50
c0 -5 -6 -8 -14 -8 -9 0 -12 7 -9 21 4 16 8 17 14 7 5 -7 9 -16 9 -20z m1158
10 c-2 -6 -10 -13 -16 -14 -9 -2 -9 -1 -1 3 8 4 7 8 -2 14 -11 7 -10 9 4 9 10
0 17 -5 15 -12z m-1252 -35 c-2 -3 -31 -6 -63 -8 l-58 -4 48 9 c27 5 51 11 54
14 3 3 10 3 15 0 5 -3 7 -8 4 -11z m-661 -3 c3 -5 -1 -10 -10 -10 -9 0 -13 5
-10 10 3 6 8 10 10 10 2 0 7 -4 10 -10z m1095 -6 c0 -2 -7 -4 -15 -4 -8 0 -15
4 -15 10 0 5 7 7 15 4 8 -4 15 -8 15 -10z m-583 0 c-3 -3 -12 -4 -19 -1 -8 3
-5 6 6 6 11 1 17 -2 13 -5z m1928 -4 c-3 -5 -10 -10 -16 -10 -5 0 -9 5 -9 10
0 6 7 10 16 10 8 0 12 -4 9 -10z m168 -3 c3 -8 -1 -14 -9 -14 -15 0 -18 9 -7
20 9 9 10 9 16 -6z m52 -6 c3 -6 14 -8 25 -6 11 2 20 0 20 -6 0 -10 -28 -8
-47 4 -7 5 -18 5 -25 1 -7 -4 -8 -3 -4 4 9 14 23 15 31 3z m172 -11 c2 -22
-12 -35 -22 -20 -3 5 -1 10 4 10 6 0 10 3 10 8 -2 10 0 22 4 22 1 0 3 -9 4
-20z m-5259 -6 c26 -18 52 -65 52 -94 0 -33 -26 -75 -55 -88 -19 -9 -219 -12
-790 -12 -571 0 -771 3 -790 12 -60 27 -74 120 -26 169 l29 29 779 0 c689 0
781 -2 801 -16z m3920 -2 c32 -24 52 -87 41 -126 -5 -17 -20 -41 -34 -53 -24
-21 -36 -23 -148 -23 -67 -1 -174 -4 -237 -7 -63 -4 -142 -7 -175 -6 -33 1
-262 4 -508 7 -496 7 -485 5 -513 72 -18 44 -8 88 28 125 l30 29 746 0 c698 0
748 -2 770 -18z m1417 -22 c4 0 2 6 -5 14 -9 12 -8 15 9 13 12 -1 21 -5 21
-10 0 -4 5 -5 12 -1 8 5 9 2 5 -9 -5 -14 0 -17 24 -17 17 0 28 3 26 8 -3 4 2
14 11 22 14 13 15 12 9 -4 -4 -10 -7 -22 -7 -27 0 -5 -18 -9 -40 -9 -30 0 -40
4 -40 16 0 14 -3 14 -16 4 -13 -11 -19 -10 -37 10 -20 22 -20 22 -1 7 11 -9
24 -17 29 -17z m-35 -5 c11 -13 10 -14 -4 -9 -9 3 -16 10 -16 15 0 13 6 11 20
-6z m-1013 -11 c-3 -3 -12 -4 -19 -1 -8 3 -5 6 6 6 11 1 17 -2 13 -5z m513
-40 c0 -8 -5 -12 -10 -9 -6 4 -8 11 -5 16 9 14 15 11 15 -7z m80 2 c0 10 87
10 96 1 3 -3 -4 -10 -15 -17 -12 -6 -21 -7 -21 -3 0 10 -83 8 -100 -2 -9 -6
-9 -2 0 14 9 18 14 20 26 10 8 -6 14 -8 14 -3z"/>
<path d="M6440 12650 c0 -5 5 -10 11 -10 5 0 7 5 4 10 -3 6 -8 10 -11 10 -2 0
-4 -4 -4 -10z"/>
<path d="M9401 13314 c0 -11 3 -14 6 -6 3 7 2 16 -1 19 -3 4 -6 -2 -5 -13z"/>
<path d="M8052 13275 c0 -16 2 -22 5 -12 2 9 2 23 0 30 -3 6 -5 -1 -5 -18z"/>
<path d="M8830 13248 c0 -65 -23 -154 -38 -151 -6 2 -9 -3 -6 -11 3 -7 -5 -31
-16 -52 -13 -23 -16 -33 -7 -26 32 27 69 133 74 213 3 43 3 79 -1 79 -3 0 -6
-24 -6 -52z"/>
<path d="M8061 13144 c-2 -37 58 -140 110 -189 71 -67 145 -98 245 -103 84 -4
194 18 194 39 0 6 5 7 12 3 7 -4 8 -3 4 4 -5 9 -14 7 -31 -4 -13 -9 -30 -12
-36 -8 -8 4 -9 3 -5 -4 4 -7 2 -12 -3 -12 -6 0 -11 3 -11 8 0 4 -14 8 -30 9
-17 1 -30 -2 -30 -6 0 -5 -15 -11 -34 -13 -19 -2 -33 -1 -30 3 2 4 0 10 -6 14
-5 3 -10 1 -10 -4 0 -6 -12 -11 -27 -11 -16 0 -23 4 -18 8 7 4 1 17 -14 32
-13 14 -20 18 -16 10 5 -8 5 -12 0 -8 -4 4 -15 2 -24 -5 -14 -10 -14 -10 -3 5
11 13 11 21 2 35 -9 14 -10 15 -6 1 5 -17 -36 -35 -42 -18 -2 6 -8 8 -13 4 -5
-3 -9 0 -9 5 0 6 -5 11 -11 11 -5 0 -7 -4 -4 -10 4 -6 -1 -7 -11 -3 -14 5 -13
8 7 19 23 13 23 13 -8 10 -23 -2 -33 1 -33 10 0 8 -6 13 -12 12 -7 -2 -13 4
-13 12 0 8 -9 20 -20 27 -11 7 -16 12 -12 13 5 0 1 7 -7 16 -9 8 -14 20 -11
25 4 5 2 9 -3 9 -6 0 -14 17 -20 38 -6 22 -10 28 -11 16z"/>
<path d="M8719 12963 l-24 -28 28 24 c15 14 27 26 27 28 0 8 -8 1 -31 -24z"/>
<path d="M8257 12945 c3 -8 9 -12 14 -9 12 7 11 11 -5 17 -10 4 -13 1 -9 -8z"/>
<path d="M8669 12923 c-13 -16 -12 -17 4 -4 16 13 21 21 13 21 -2 0 -10 -8
-17 -17z"/>
<path d="M7492 12820 c0 -14 2 -19 5 -12 2 6 2 18 0 25 -3 6 -5 1 -5 -13z"/>
<path d="M9445 12830 c3 -5 8 -10 11 -10 2 0 4 5 4 10 0 6 -5 10 -11 10 -5 0
-7 -4 -4 -10z"/>
<path d="M9474 12787 c0 -13 7 -24 14 -24 15 0 15 7 -2 30 -13 17 -14 16 -12
-6z"/>
<path d="M10612 12780 c0 -14 2 -19 5 -12 2 6 2 18 0 25 -3 6 -5 1 -5 -13z"/>
<path d="M6420 12770 c0 -5 -6 -10 -14 -10 -8 0 -13 -8 -11 -17 2 -10 4 -29 5
-43 1 -25 1 -25 13 -4 7 12 18 19 25 17 7 -3 10 1 6 11 -4 10 -1 16 7 16 11 0
11 3 -1 10 -13 9 -13 10 0 10 13 0 13 1 0 10 -19 13 -30 13 -30 0z"/>
<path d="M6565 12740 c3 -5 8 -10 11 -10 2 0 4 5 4 10 0 6 -5 10 -11 10 -5 0
-7 -4 -4 -10z"/>
<path d="M6324 12718 c-6 -9 32 -48 45 -48 6 0 13 4 16 10 4 6 -1 7 -12 3 -15
-6 -16 -4 -6 8 10 13 10 16 -2 16 -8 0 -11 -5 -8 -10 4 -6 1 -7 -7 -2 -10 6
-9 11 5 21 16 12 16 13 -5 11 -12 -1 -24 -5 -26 -9z"/>
<path d="M6565 12711 c-3 -5 -1 -12 5 -16 5 -3 10 1 10 9 0 18 -6 21 -15 7z"/>
<path d="M8365 12704 c-27 -2 -81 -9 -119 -15 -65 -11 -68 -12 -46 -24 13 -7
29 -11 36 -8 7 2 15 -1 20 -8 5 -8 3 -10 -6 -4 -16 10 -12 0 20 -47 33 -48 57
-56 54 -17 -2 27 6 35 31 29 6 -1 15 -3 22 -4 7 -1 16 -6 20 -11 4 -4 -2 -5
-14 -2 -16 3 -23 1 -23 -9 0 -8 8 -14 18 -15 14 0 14 -2 -3 -8 -11 -5 -24 -6
-29 -3 -5 3 -6 0 -2 -7 4 -6 20 -10 34 -9 24 3 27 0 29 -32 1 -19 -1 -28 -3
-18 -3 9 -16 19 -29 22 -13 3 -31 9 -40 12 -15 6 -16 2 -12 -29 3 -21 1 -34
-4 -31 -5 3 -7 9 -4 14 3 4 -2 13 -9 19 -10 9 -16 9 -21 1 -4 -6 -1 -9 7 -8 7
2 12 -3 10 -10 -3 -19 17 -52 32 -52 7 0 18 10 25 23 9 16 10 17 5 2 -4 -11
-6 -30 -5 -43 0 -13 -3 -20 -9 -17 -6 3 -10 2 -10 -3 0 -6 -10 -8 -21 -5 -15
4 -27 0 -35 -12 -8 -11 -14 -15 -14 -9 0 5 -5 2 -11 -6 -8 -11 -9 -8 -4 13 3
17 2 26 -3 23 -13 -8 -35 20 -27 34 3 6 11 8 16 5 5 -4 9 -1 9 4 0 6 -7 11
-16 11 -8 0 -13 4 -9 10 3 5 13 6 21 3 11 -4 15 0 13 13 -4 24 19 66 32 59 15
-10 10 2 -8 16 -9 8 -14 9 -11 4 9 -15 -19 -48 -33 -39 -8 5 -10 3 -4 -6 6
-10 4 -12 -8 -7 -9 3 -19 1 -23 -5 -4 -6 -3 -8 4 -4 6 3 13 2 16 -2 3 -5 -27
-10 -66 -11 -40 -1 -75 -4 -80 -7 -4 -3 -11 2 -14 10 -3 9 -12 16 -20 16 -14
0 -18 11 -15 40 2 12 0 12 -7 1 -7 -10 -11 -10 -17 -1 -4 6 -14 9 -22 6 -12
-5 -14 -1 -9 19 6 25 5 25 -16 14 -44 -24 -134 -124 -161 -179 -32 -66 -46
-163 -26 -176 15 -9 1335 -8 1350 2 20 12 9 99 -20 160 -28 59 -29 60 -65 56
-30 -4 -36 -8 -36 -28 0 -13 -5 -24 -11 -24 -8 0 -8 -5 1 -15 10 -12 10 -15
-2 -15 -22 0 -29 12 -17 27 9 10 7 19 -5 38 -21 32 -28 32 -16 0 5 -14 6 -25
2 -26 -4 0 -15 -2 -24 -4 -12 -2 -15 3 -13 16 2 10 0 20 -6 20 -33 5 -43 2
-47 -10 -3 -8 0 -11 5 -8 5 3 10 0 10 -8 0 -8 -6 -15 -14 -15 -7 0 -12 6 -11
13 2 6 -5 11 -15 11 -13 -2 -15 1 -7 10 5 7 7 16 3 20 -4 4 -1 12 7 17 13 9
12 10 -2 5 -10 -3 -20 -1 -23 4 -3 5 12 10 32 12 29 2 37 7 35 20 -1 9 2 19 8
23 5 3 10 -1 10 -10 0 -9 4 -14 9 -10 12 7 6 42 -11 64 -12 15 -11 15 7 -1 24
-19 54 -27 54 -13 0 6 -6 9 -14 9 -8 -1 -13 3 -12 9 3 13 -64 52 -123 72 -43
14 -44 14 -25 -3 42 -35 46 -47 24 -71 -11 -12 -26 -18 -32 -15 -9 5 -9 3 0
-6 10 -10 10 -17 1 -27 -9 -12 -7 -13 14 -8 19 5 27 2 32 -11 5 -14 4 -15 -8
-5 -8 7 -20 10 -25 6 -12 -7 -61 23 -61 37 0 6 7 8 15 4 8 -3 15 -1 15 4 0 15
-30 12 -36 -4 -3 -8 -16 -13 -30 -11 -13 1 -24 -1 -24 -5 0 -4 -9 -10 -20 -13
-12 -3 -20 -14 -20 -27 0 -19 -1 -20 -16 -6 -18 18 -15 47 5 54 8 3 11 0 7 -7
-4 -6 -2 -11 3 -11 6 0 11 9 11 19 0 27 -38 23 -47 -4 -10 -30 -10 -39 0 -52
6 -8 6 -18 -1 -25 -6 -7 -11 -17 -12 -23 -3 -15 -10 -20 -10 -7 0 17 -32 52
-48 52 -9 0 -12 -7 -9 -19 2 -10 1 -25 -4 -32 -4 -7 -3 -22 3 -32 7 -14 7 -17
-1 -13 -6 4 -11 2 -11 -3 0 -6 -5 -11 -10 -11 -7 0 -7 6 -1 18 6 11 6 24 0 33
-7 12 -9 11 -9 -3 0 -12 -5 -15 -16 -11 -13 5 -15 16 -11 50 4 39 3 42 -10 26
-8 -10 -12 -12 -8 -5 3 6 2 12 -2 12 -15 0 -12 38 3 44 7 3 13 0 11 -6 -1 -7
7 -12 18 -13 11 0 19 -6 18 -12 -4 -18 12 -16 27 3 8 8 9 14 3 12 -6 -2 -11 1
-11 6 0 5 -6 13 -14 17 -9 6 -7 9 8 9 13 0 24 8 27 19 3 13 0 18 -8 15 -7 -3
-16 -1 -19 5 -4 6 -18 6 -36 1 -18 -5 -30 -5 -30 1 0 5 11 9 24 9 14 0 28 5
31 10 4 6 10 8 15 5 13 -8 81 24 79 38 -1 7 -1 19 0 27 1 13 2 13 11 0 8 -13
10 -12 10 3 0 13 -8 17 -34 17 -18 0 -60 2 -92 4 -32 2 -81 2 -109 0z m-84
-51 c13 -16 12 -17 -3 -4 -10 7 -18 15 -18 17 0 8 8 3 21 -13z m580 -125 c5
-7 3 -16 -4 -20 -8 -5 -13 0 -15 12 -2 11 -7 18 -12 15 -5 -3 -11 -1 -15 4 -3
6 4 8 16 6 13 -3 26 -10 30 -17z m-196 -58 c3 -5 1 -10 -4 -10 -6 0 -11 5 -11
10 0 6 2 10 4 10 3 0 8 -4 11 -10z m-240 -48 c11 -6 14 -12 7 -12 -7 0 -11 -4
-7 -9 3 -5 0 -13 -6 -17 -8 -4 -9 -3 -5 4 4 7 2 12 -3 12 -6 0 -11 7 -11 15 0
8 -4 15 -10 15 -5 0 -10 -5 -10 -12 0 -6 -2 -9 -5 -7 -2 3 -2 15 2 27 4 19 7
20 17 8 6 -7 20 -18 31 -24z m188 10 c-3 -12 -10 -22 -15 -22 -5 0 -7 3 -5 8
2 4 7 16 11 26 9 25 17 16 9 -12z m-63 -47 c0 -8 -2 -15 -4 -15 -2 0 -6 7 -10
15 -3 8 -1 15 4 15 6 0 10 -7 10 -15z m345 -25 c-3 -5 -11 -10 -16 -10 -6 0
-7 5 -4 10 3 6 11 10 16 10 6 0 7 -4 4 -10z m-335 -60 c0 -5 -5 -10 -11 -10
-5 0 -7 5 -4 10 3 6 8 10 11 10 2 0 4 -4 4 -10z"/>
<path d="M8610 12680 c0 -12 8 -12 35 0 18 8 17 9 -7 9 -16 1 -28 -3 -28 -9z"/>
<path d="M6745 12670 c3 -5 8 -10 11 -10 2 0 4 5 4 10 0 6 -5 10 -11 10 -5 0
-7 -4 -4 -10z"/>
<path d="M8688 12673 c7 -3 16 -2 19 1 4 3 -2 6 -13 5 -11 0 -14 -3 -6 -6z"/>
<path d="M6780 12660 c0 -6 7 -10 15 -10 8 0 15 2 15 4 0 2 -7 6 -15 10 -8 3
-15 1 -15 -4z"/>
<path d="M8148 12663 c7 -3 16 -2 19 1 4 3 -2 6 -13 5 -11 0 -14 -3 -6 -6z"/>
<path d="M9588 12663 c7 -3 16 -2 19 1 4 3 -2 6 -13 5 -11 0 -14 -3 -6 -6z"/>
<path d="M6985 12650 c3 -5 8 -10 11 -10 2 0 4 5 4 10 0 6 -5 10 -11 10 -5 0
-7 -4 -4 -10z"/>
<path d="M8100 12650 c-8 -5 -10 -10 -5 -10 6 0 17 5 25 10 8 5 11 10 5 10 -5
0 -17 -5 -25 -10z"/>
<path d="M9616 12638 c5 -8 0 -9 -14 -6 -12 4 -20 2 -16 -3 8 -14 30 -11 44 6
10 12 9 15 -4 15 -11 0 -14 -5 -10 -12z"/>
<path d="M6661 12624 c0 -11 3 -14 6 -6 3 7 2 16 -1 19 -3 4 -6 -2 -5 -13z"/>
<path d="M10721 12624 c-1 -6 2 -14 7 -18 4 -4 8 -12 8 -17 1 -5 2 -13 3 -19
0 -5 10 -10 21 -10 11 0 19 3 19 8 -4 24 3 34 20 29 14 -3 18 -1 14 10 -3 8
-12 12 -19 9 -8 -3 -14 -1 -14 4 0 6 -9 6 -24 0 -17 -6 -26 -5 -30 3 -2 7 -5
8 -5 1z"/>
<path d="M6977 12614 c-13 -13 4 -23 30 -18 31 6 39 11 30 20 -4 4 -13 2 -20
-4 -9 -8 -17 -8 -23 -2 -6 6 -13 7 -17 4z"/>
<path d="M7178 12613 c7 -3 16 -2 19 1 4 3 -2 6 -13 5 -11 0 -14 -3 -6 -6z"/>
<path d="M8004 12604 c-18 -14 -18 -15 4 -4 12 6 22 13 22 15 0 8 -5 6 -26
-11z"/>
<path d="M9800 12612 c0 -5 7 -9 15 -9 8 0 12 4 9 9 -3 4 -9 8 -15 8 -5 0 -9
-4 -9 -8z"/>
<path d="M8540 12596 c28 -17 50 -21 35 -7 -6 5 -21 12 -35 15 l-25 7 25 -15z"/>
<path d="M9590 12599 c0 -5 5 -7 10 -4 6 3 10 8 10 11 0 2 -4 4 -10 4 -5 0
-10 -5 -10 -11z"/>
<path d="M10293 12583 c-3 -10 -8 -21 -10 -25 -2 -4 3 -5 11 -2 9 3 16 15 16
25 0 24 -9 25 -17 2z"/>
<path d="M10407 12589 c7 -7 15 -10 18 -7 3 3 -2 9 -12 12 -14 6 -15 5 -6 -5z"/>
<path d="M9939 12573 c-8 -9 -9 -14 -2 -10 6 4 14 1 16 -5 3 -7 6 -3 6 10 1
26 -2 27 -20 5z"/>
<path d="M10237 12574 c3 -8 10 -14 17 -14 6 0 4 -5 -4 -10 -9 -6 -10 -10 -3
-10 13 0 39 40 26 41 -4 0 -16 2 -25 4 -11 2 -15 -2 -11 -11z"/>
<path d="M9822 12563 c14 -17 28 -16 28 1 0 8 -9 14 -19 13 -15 -1 -17 -4 -9
-14z"/>
<path d="M10321 12575 c-2 -25 15 -35 46 -26 17 5 35 6 39 3 4 -4 4 -1 -1 6
-4 9 -20 12 -41 10 -19 -2 -36 1 -38 7 -3 6 -5 6 -5 0z"/>
<path d="M10700 12570 c8 -5 20 -10 25 -10 6 0 3 5 -5 10 -8 5 -19 10 -25 10
-5 0 -3 -5 5 -10z"/>
<path d="M10803 12531 c0 -11 5 -18 9 -15 4 3 5 11 1 19 -7 21 -12 19 -10 -4z"/>
<path d="M10863 12531 c-9 -15 -9 -23 2 -37 13 -17 14 -16 15 19 0 43 -1 44
-17 18z"/>
<path d="M9690 12536 c0 -2 8 -10 18 -17 15 -13 16 -12 3 4 -13 16 -21 21 -21
13z"/>
<path d="M7288 12503 c7 -3 16 -2 19 1 4 3 -2 6 -13 5 -11 0 -14 -3 -6 -6z"/>
<path d="M7420 12500 c0 -5 5 -10 11 -10 5 0 7 5 4 10 -3 6 -8 10 -11 10 -2 0
-4 -4 -4 -10z"/>
<path d="M9033 12476 c7 -14 15 -26 20 -26 13 0 7 17 -13 35 -19 17 -19 17 -7
-9z"/>
<path d="M8565 12470 c-3 -5 -1 -10 4 -10 6 0 11 5 11 10 0 6 -2 10 -4 10 -3
0 -8 -4 -11 -10z"/>
<path d="M10933 12466 c-3 -6 -3 -8 2 -4 4 4 14 0 21 -10 12 -16 13 -15 11 4
-1 22 -24 28 -34 10z"/>
<path d="M8931 12414 c0 -11 3 -14 6 -6 3 7 2 16 -1 19 -3 4 -6 -2 -5 -13z"/>
<path d="M8300 12410 c-9 -6 -10 -10 -3 -10 6 0 15 5 18 10 8 12 4 12 -15 0z"/>
<path d="M13390 10910 c-10 -6 -11 -10 -2 -10 6 0 12 -4 12 -10 0 -5 -28 -11
-62 -13 -39 -2 -27 -4 30 -3 50 1 92 -3 92 -7 0 -4 6 -7 13 -5 7 2 14 -1 16
-7 2 -5 12 -21 22 -34 11 -14 19 -40 19 -62 0 -22 5 -39 11 -39 6 0 9 6 6 14
-6 16 19 30 28 16 4 -6 1 -10 -5 -10 -6 0 -8 -5 -5 -10 4 -6 12 -5 21 4 16 17
19 30 4 21 -5 -3 -10 1 -10 10 0 8 -7 18 -16 22 -8 3 -13 11 -11 17 2 6 -13
27 -34 48 -22 20 -39 31 -39 25 0 -8 -4 -7 -9 2 -5 7 -14 10 -20 7 -6 -4 -11
-2 -11 3 0 6 -9 11 -21 11 -11 0 -17 5 -14 10 8 12 4 12 -15 0z m149 -104 c-2
-2 -13 8 -23 22 l-19 27 24 -22 c12 -12 21 -24 18 -27z m21 -30 c0 -3 -4 -8
-10 -11 -5 -3 -10 -1 -10 4 0 6 5 11 10 11 6 0 10 -2 10 -4z"/>
<path d="M13550 10701 c0 -5 9 -7 20 -4 11 3 20 7 20 9 0 2 -9 4 -20 4 -11 0
-20 -4 -20 -9z"/>
<path d="M13500 10668 c0 -4 7 -8 15 -8 8 0 15 4 15 8 0 5 -7 9 -15 9 -8 0
-15 -4 -15 -9z"/>
<path d="M13493 10643 c9 -2 23 -2 30 0 6 3 -1 5 -18 5 -16 0 -22 -2 -12 -5z"/>
<path d="M12361 10622 c-8 -14 -6 -19 5 -19 7 0 14 9 14 19 0 10 -2 18 -5 18
-2 0 -9 -8 -14 -18z"/>
<path d="M11325 10621 c-3 -5 -2 -12 3 -15 5 -3 9 1 9 9 0 17 -3 19 -12 6z"/>
<path d="M12553 10620 c2 -8 14 -16 28 -17 19 -1 20 -1 4 4 -11 3 -24 10 -28
17 -6 7 -7 6 -4 -4z"/>
<path d="M13453 10623 c-19 -7 -16 -23 4 -23 14 0 14 -3 5 -12 -10 -10 -15
-10 -22 2 -5 8 -13 15 -17 15 -4 1 -19 5 -31 9 -18 6 -29 3 -43 -13 -20 -21
-20 -21 5 -21 14 0 28 -5 31 -11 4 -6 1 -10 -6 -8 -8 1 -23 0 -34 -1 -14 -2
-12 -4 10 -9 36 -9 35 -9 40 18 2 12 0 19 -5 16 -5 -3 -12 0 -15 6 -5 7 1 9
16 7 13 -2 23 -9 22 -15 -2 -6 5 -12 15 -12 9 1 28 -3 41 -7 17 -5 22 -4 17 4
-4 7 -1 12 9 12 9 0 13 5 10 10 -3 6 3 10 14 10 12 0 21 5 21 10 0 6 -11 8
-26 4 -19 -5 -25 -4 -20 5 7 11 -17 14 -41 4z"/>
<path d="M12508 10603 c7 -3 16 -2 19 1 4 3 -2 6 -13 5 -11 0 -14 -3 -6 -6z"/>
<path d="M12188 10583 c7 -3 16 -2 19 1 4 3 -2 6 -13 5 -11 0 -14 -3 -6 -6z"/>
<path d="M13630 10569 c0 -5 5 -7 10 -4 6 3 10 8 10 11 0 2 -4 4 -10 4 -5 0
-10 -5 -10 -11z"/>
<path d="M12840 10549 c0 -5 5 -7 10 -4 6 3 10 8 10 11 0 2 -4 4 -10 4 -5 0
-10 -5 -10 -11z"/>
<path d="M13436 10552 c-4 -4 -13 -7 -18 -7 -6 0 -13 -7 -15 -15 -4 -12 -3
-12 5 -1 8 11 10 11 15 0 4 -10 6 -10 6 -1 1 19 21 14 21 -5 0 -15 1 -15 13 1
11 15 15 16 25 3 7 -9 22 -12 38 -9 16 3 29 -1 35 -9 4 -7 11 -10 16 -6 11 12
-18 27 -52 27 -17 0 -36 5 -43 12 -7 7 -12 8 -12 4 0 -5 -6 -3 -13 3 -8 6 -17
7 -21 3z"/>
<path d="M13606 10548 c3 -4 18 -8 35 -8 16 0 29 4 29 8 0 4 -15 8 -34 8 -19
0 -32 -4 -30 -8z"/>
<path d="M13700 10538 c0 -7 5 -20 10 -28 8 -12 10 -9 10 13 0 15 -4 27 -10
27 -5 0 -10 -6 -10 -12z"/>
<path d="M13760 10535 c-10 -12 -10 -15 2 -15 8 0 15 7 15 15 0 8 -1 15 -2 15
-2 0 -8 -7 -15 -15z"/>
<path d="M13840 10522 c0 -6 -2 -17 -5 -24 -4 -10 4 -14 25 -16 31 -2 48 16
35 39 -6 8 -10 8 -15 -2 -7 -10 -11 -10 -24 0 -9 8 -16 9 -16 3z"/>
<path d="M12796 10505 c-12 -9 -15 -15 -7 -15 11 0 11 -3 1 -15 -7 -8 -19 -15
-26 -15 -15 0 -19 -16 -6 -24 11 -6 40 28 52 60 11 28 11 28 -14 9z"/>
<path d="M12836 10504 c-11 -7 -18 -16 -15 -18 2 -2 13 2 23 10 11 7 18 16 15
18 -2 2 -13 -2 -23 -10z"/>
<path d="M13680 10510 c0 -5 5 -10 10 -10 6 0 10 5 10 10 0 6 -4 10 -10 10 -5
0 -10 -4 -10 -10z"/>
<path d="M13941 10513 c-1 -18 19 -27 32 -13 9 10 8 12 -5 7 -9 -3 -19 -1 -22
6 -3 9 -5 9 -5 0z"/>
<path d="M11760 10490 c0 -5 5 -10 11 -10 5 0 7 5 4 10 -3 6 -8 10 -11 10 -2
0 -4 -4 -4 -10z"/>
<path d="M13920 10495 c1 -5 2 -17 1 -25 -1 -13 -3 -13 -12 0 -9 13 -10 12 -5
-2 3 -10 2 -18 -2 -18 -34 -1 -37 -50 -3 -50 10 0 26 -8 37 -17 22 -20 44 -27
44 -15 0 8 -62 46 -72 44 -4 -1 -5 5 -1 14 5 13 7 13 14 2 7 -11 10 -10 21 1
8 9 9 11 1 7 -14 -8 -30 13 -16 23 11 7 11 26 0 38 -5 4 -8 4 -7 -2z"/>
<path d="M13538 10483 c-25 -3 -42 -11 -48 -24 -6 -10 -21 -19 -33 -19 l-21 0
21 -22 c21 -20 23 -21 49 -4 14 10 23 13 19 6 -5 -8 -1 -11 11 -8 11 2 18 10
16 17 -1 7 2 10 7 7 5 -4 12 -2 16 4 3 5 -1 10 -9 10 -9 0 -16 5 -16 11 0 5 5
7 10 4 6 -3 10 -1 10 4 0 6 4 11 8 11 11 0 12 -39 1 -45 -5 -4 -6 -11 -3 -17
4 -6 2 -8 -4 -4 -6 3 -14 2 -17 -4 -4 -6 -14 -10 -23 -9 -31 3 -43 -1 -37 -11
3 -5 1 -10 -5 -10 -6 0 -8 -5 -4 -11 4 -7 9 -7 13 -2 3 5 14 13 25 16 14 6 17
4 12 -8 -4 -11 -2 -14 7 -8 6 4 19 8 27 8 8 0 20 4 27 8 7 4 16 1 21 -9 8 -15
10 -15 15 0 4 10 3 15 -3 11 -6 -3 -10 -1 -10 4 0 16 14 13 36 -7 13 -12 26
-16 39 -12 11 4 23 3 27 -3 4 -6 12 -4 22 6 9 9 25 19 36 22 11 3 19 11 17 17
-1 6 9 12 21 14 22 4 24 1 19 -34 -4 -36 -2 -38 20 -34 12 2 23 11 23 19 0 8
-4 12 -9 9 -5 -3 -8 6 -8 20 0 33 -3 35 -59 39 -29 2 -52 9 -60 19 -13 19 -25
21 -21 4 1 -7 -10 -14 -25 -17 -22 -5 -25 -9 -18 -21 9 -13 11 -13 21 0 9 13
10 12 5 -3 -3 -10 -6 -21 -6 -25 0 -3 -12 5 -27 19 -14 13 -23 18 -19 12 4 -7
2 -13 -3 -13 -10 0 -16 21 -12 43 0 4 -3 8 -9 8 -5 1 -14 2 -19 3 -5 0 -13 4
-17 9 -4 4 -10 6 -13 5 -3 -1 -23 -3 -43 -5z m2 -35 c0 -5 -7 -8 -15 -4 -9 3
-24 -3 -35 -14 -11 -11 -20 -16 -20 -11 0 5 12 19 26 30 26 20 44 20 44 -1z
m90 -18 c0 -5 -2 -10 -4 -10 -3 0 -8 5 -11 10 -3 6 -1 10 4 10 6 0 11 -4 11
-10z m125 -19 c3 -5 0 -13 -6 -17 -7 -4 -9 -3 -5 4 3 6 -2 13 -11 15 -16 4
-16 5 -1 6 9 0 19 -3 23 -8z"/>
<path d="M13685 10481 c-3 -5 -1 -12 5 -16 5 -3 10 1 10 9 0 18 -6 21 -15 7z"/>
<path d="M13800 10480 c0 -5 5 -10 11 -10 5 0 7 5 4 10 -3 6 -8 10 -11 10 -2
0 -4 -4 -4 -10z"/>
<path d="M12634 10449 c-3 -5 6 -8 20 -7 26 2 26 10 1 14 -8 1 -17 -2 -21 -7z"/>
<path d="M12786 10434 c-20 -19 -20 -20 3 -20 11 0 18 3 15 7 -2 4 1 9 8 11 9
3 9 6 1 11 -6 4 -19 0 -27 -9z"/>
<path d="M13414 10444 c-19 -8 -4 -43 18 -41 16 1 17 3 5 12 -7 5 -12 16 -10
23 5 13 4 13 -13 6z"/>
<path d="M12689 10429 c-10 -6 -7 -9 14 -9 29 0 35 5 14 13 -8 3 -20 1 -28 -4z"/>
<path d="M12840 10430 c0 -5 5 -10 10 -10 6 0 10 5 10 10 0 6 -4 10 -10 10 -5
0 -10 -4 -10 -10z"/>
<path d="M13964 10432 c3 -5 1 -12 -5 -14 -7 -2 -5 -9 5 -17 14 -12 16 -11 16
7 0 12 -5 24 -12 28 -6 4 -8 3 -4 -4z"/>
<path d="M12746 10417 c3 -10 9 -15 12 -12 3 3 0 11 -7 18 -10 9 -11 8 -5 -6z"/>
<path d="M13109 10383 c-13 -16 -12 -17 4 -4 9 7 17 15 17 17 0 8 -8 3 -21
-13z"/>
<path d="M13240 10396 c0 -2 7 -7 16 -10 8 -3 12 -2 9 4 -6 10 -25 14 -25 6z"/>
<path d="M12050 10386 c0 -2 9 -6 20 -9 11 -3 18 -1 14 4 -5 9 -34 13 -34 5z"/>
<path d="M13305 10371 c-3 -5 -1 -12 5 -16 5 -3 10 1 10 9 0 18 -6 21 -15 7z"/>
<path d="M13762 10369 c2 -6 8 -10 13 -10 5 0 11 4 13 10 2 6 -4 11 -13 11 -9
0 -15 -5 -13 -11z"/>
<path d="M13974 10338 c-3 -4 -3 -8 0 -8 2 0 11 -2 19 -5 7 -3 14 0 14 8 0 15
-25 19 -33 5z"/>
<path d="M14116 10312 c-3 -6 1 -13 10 -16 23 -9 28 -2 10 13 -8 7 -17 8 -20
3z"/>
<path d="M16114 7041 c-23 -10 -54 -36 -70 -57 -26 -34 -29 -45 -29 -115 0
-71 2 -80 31 -116 45 -56 86 -76 153 -76 62 0 102 17 143 60 35 37 48 73 48
134 0 141 -144 230 -276 170z"/>
<path d="M14948 7022 l-158 -3 0 -819 0 -820 160 0 160 0 0 275 c0 151 3 275
8 274 4 0 96 -124 205 -275 l199 -274 194 0 c154 0 194 3 188 13 -7 11 -222
289 -391 505 -40 52 -73 97 -73 100 0 7 290 368 376 469 24 28 44 54 44 57 0
3 -84 6 -188 6 l-187 0 -165 -211 c-91 -116 -172 -222 -180 -235 -8 -13 -18
-24 -22 -24 -4 0 -9 217 -10 483 l-3 482 -157 -3z"/>
<path d="M16640 6205 l0 -825 160 0 160 0 0 825 0 825 -160 0 -160 0 0 -825z"/>
<path d="M17240 6205 l0 -825 163 2 162 3 0 820 0 820 -162 3 -163 2 0 -825z"/>
<path d="M8660 6200 l0 -820 163 2 162 3 5 355 c5 342 6 356 27 396 78 146
277 178 392 63 67 -68 71 -92 71 -481 l0 -338 163 2 162 3 0 375 c0 406 -5
460 -53 559 -61 124 -180 208 -329 232 -147 24 -299 -24 -387 -122 l-46 -51 0
321 0 321 -165 0 -165 0 0 -820z"/>
<path d="M13805 6976 c-138 -27 -233 -75 -312 -158 -90 -96 -129 -207 -120
-338 7 -102 38 -178 98 -245 86 -93 180 -136 461 -210 236 -62 296 -99 313
-187 9 -50 -9 -101 -50 -137 -43 -37 -87 -51 -190 -58 -155 -10 -292 38 -403
142 l-64 59 -108 -114 -108 -115 31 -33 c49 -52 147 -119 233 -158 105 -49
231 -74 372 -74 189 0 326 38 449 126 214 153 243 478 57 660 -79 77 -185 125
-410 183 -214 55 -271 78 -314 127 -24 28 -30 44 -30 82 0 103 68 153 216 160
140 7 243 -29 336 -115 26 -26 50 -44 51 -42 2 2 52 57 110 121 l107 117 -61
51 c-73 61 -172 112 -271 140 -95 28 -293 35 -393 16z"/>
<path d="M3228 6953 c-10 -2 -20 -14 -23 -26 -3 -12 -36 -287 -75 -612 -38
-324 -79 -662 -90 -751 -11 -88 -20 -166 -20 -173 0 -8 42 -11 163 -9 l162 3
36 300 c19 165 46 396 60 513 13 116 26 212 29 212 3 0 34 -66 69 -147 35 -82
115 -264 179 -405 l115 -258 117 0 116 0 19 38 c48 98 172 369 255 558 99 223
97 220 105 213 2 -3 20 -156 40 -340 48 -460 64 -608 71 -651 l6 -38 164 0
c90 0 164 3 164 6 0 3 -12 99 -26 213 -25 208 -81 678 -131 1114 l-27 237
-162 0 -161 0 -31 -67 c-57 -125 -199 -436 -281 -616 -45 -98 -88 -195 -96
-214 -9 -20 -17 -34 -19 -32 -4 4 -123 265 -348 762 l-81 177 -141 -1 c-77 -1
-149 -3 -158 -6z"/>
<path d="M10195 6918 c-14 -82 -175 -1474 -175 -1516 l0 -23 158 3 157 3 31
250 c17 138 43 363 59 500 15 138 31 256 34 262 4 7 56 -96 115 -230 60 -133
143 -315 184 -405 l75 -163 120 3 121 3 91 196 c49 107 133 289 185 403 89
195 95 206 102 174 4 -18 30 -244 58 -503 28 -258 53 -476 55 -482 6 -19 325
-18 325 0 0 7 -9 85 -20 173 -10 87 -42 366 -70 619 -59 537 -79 711 -86 743
-4 22 -5 22 -164 20 l-160 -3 -64 -135 c-35 -74 -132 -283 -216 -465 -84 -181
-154 -332 -156 -334 -2 -2 -8 7 -13 20 -10 27 -366 797 -402 872 l-23 47 -158
0 -157 0 -6 -32z"/>
<path d="M6610 6695 l0 -165 -85 0 -85 0 0 -130 0 -130 85 0 85 0 0 -267 c1
-306 9 -396 46 -470 65 -134 244 -198 452 -163 l72 12 0 133 0 133 -73 -5
c-83 -6 -124 8 -154 54 -16 24 -18 56 -18 295 0 310 -16 278 138 278 l97 0 0
130 0 129 -117 3 -118 3 -3 163 -2 162 -160 0 -160 0 0 -165z"/>
<path d="M5475 6548 c-92 -17 -205 -80 -273 -152 -265 -284 -193 -810 134
-983 207 -110 465 -70 593 91 28 34 29 35 35 13 3 -12 6 -48 6 -79 l0 -58 155
0 155 0 0 575 0 575 -155 0 -154 0 -3 -81 -3 -81 -32 46 c-41 57 -121 111
-198 131 -65 16 -181 18 -260 3z m289 -290 c27 -8 61 -32 97 -68 71 -70 94
-131 93 -245 0 -172 -98 -287 -257 -302 -87 -8 -160 15 -221 68 -57 50 -81 95
-96 179 -13 71 -1 169 27 224 32 64 105 126 173 147 39 12 139 10 184 -3z"/>
<path d="M7775 6545 c-223 -49 -395 -211 -452 -426 -20 -78 -22 -242 -4 -319
23 -98 80 -199 151 -270 281 -281 815 -223 988 106 18 34 32 66 32 72 0 5 -24
16 -52 23 -29 6 -91 25 -137 41 -47 15 -90 28 -96 28 -6 0 -19 -16 -30 -35
-53 -99 -209 -149 -342 -110 -242 72 -268 469 -38 584 56 28 153 38 211 22 54
-15 124 -63 153 -106 13 -19 31 -35 39 -35 15 0 284 79 290 85 7 6 -51 110
-89 160 -61 81 -153 138 -274 172 -77 21 -267 26 -350 8z"/>
<path d="M12854 6375 c-31 -88 -92 -264 -134 -392 -43 -127 -81 -237 -85 -244
-7 -10 -65 144 -245 644 l-52 147 -169 0 c-93 0 -169 -3 -169 -6 0 -7 44 -119
277 -697 l184 -457 -27 -60 c-49 -109 -119 -147 -251 -136 l-73 6 0 -139 0
-138 46 -7 c122 -16 259 4 345 51 122 66 202 192 324 508 32 83 123 314 203
515 147 374 214 551 210 556 -2 1 -76 4 -165 6 l-162 3 -57 -160z"/>
<path d="M16040 5958 l0 -578 160 0 160 0 0 578 0 577 -160 0 -160 0 0 -577z"/>
</g>
</svg>
